# xmcd CD database file
#
# Track frame offsets:
#	150
#	19407
#	30260
#	39062
#	49132
#	64557
#	82435
#	97385
#	125377
#
# Disc length: 2453 seconds
#
# Revision: 1
# Processed by: cddbd v1.5.1PL0 Copyright (c) Steve Scherf et al.
# Submitted via: CDex 1.40Release
#
DISCID=73099309
DTITLE=Loren MazzaCane Connors - In Pittsburgh
DYEAR=1997
DGENRE=Blues
TTITLE0=Trouble In Mind
TTITLE1=Prelide1
TTITLE2=Trouble In Mind2
TTITLE3=Prelude2
TTITLE4=Night Train
TTITLE5=Child's Blues
TTITLE6=Fallen son
TTITLE7=Blue Ghost Blues
TTITLE8=Nighthawks
EXTD=YEAR: 1997 ID3G: 0
EXTT0=
EXTT1=
EXTT2=
EXTT3=
EXTT4=
EXTT5=
EXTT6=
EXTT7=
EXTT8=
PLAYORDER=
